PathFileType	4	(X/Y/Z)	/Users/mathieubourgeois/Desktop/Analyse/Traitement/Sujet_01/Transformed_Static_Sujet_01_Tpose.trc
DataRate	CameraRate	NumFrames	NumMarkers	Units	OrigDataRate	OrigDataStartFrame	OrigNumFrames
120.000000	120.000000	4	35	mm	120.000000	28	226
Frame#	Time	LFHD			RFHD			LBHD			RBHD			RSHO			LSHO			CLAV			STRN			T10			RHUM			LHUM			LRAD			RRAD			RWRA			RWRB			RCAR			LCAR			LWRA			LWRB			RFWT			LFWT			LBWT			RBWT			RKNI			LKNI			RKNE			LKNE			RANE			RANI			LANI			LANE			LHEE			RHEE			RTOE			LTOE			
		X1	Y1	Z1	X2	Y2	Z2	X3	Y3	Z3	X4	Y4	Z4	X5	Y5	Z5	X6	Y6	Z6	X7	Y7	Z7	X8	Y8	Z8	X9	Y9	Z9	X10	Y10	Z10	X11	Y11	Z11	X12	Y12	Z12	X13	Y13	Z13	X14	Y14	Z14	X15	Y15	Z15	X16	Y16	Z16	X17	Y17	Z17	X18	Y18	Z18	X19	Y19	Z19	X20	Y20	Z20	X21	Y21	Z21	X22	Y22	Z22	X23	Y23	Z23	X24	Y24	Z24	X25	Y25	Z25	X26	Y26	Z26	X27	Y27	Z27	X28	Y28	Z28	X29	Y29	Z29	X30	Y30	Z30	X31	Y31	Z31	X32	Y32	Z32	X33	Y33	Z33	X34	Y34	Z34	X35	Y35	Z35	

29	0.2333333333333333	1.080624461173995	1553.23876953125	129.2846221923827	29.12381935119626	1541.984130859375	251.285903930664	-149.2623901367188	1570.76123046875	163.3297271728514	-115.568588256836	1558.345825195312	292.5619812011718	-126.1961288452149	1410.05810546875	344.9238281249999	-152.2154541015625	1399.219604492188	95.65274047851553	-67.93140411376956	1365.353393554688	193.8704833984374	-23.61639404296877	1266.610229492188	204.5612182617187	-233.7226867675782	1211.862915039062	239.341339111328	-115.9795303344727	1239.8125	589.9553222656249	-143.7606964111328	1237.914428710938	-161.227020263672	-189.455825805664	1275.988891601562	-179.5600433349611	-168.567123413086	1274.698852539062	603.7432250976561	-184.8427276611329	1284.183349609375	825.4908447265624	-177.3130340576173	1222.792236328125	821.1887817382811	-230.8926391601564	1217.34765625	897.3204345703124	-229.569595336914	1230.300170898438	-475.9277648925782	-186.2072448730468	1282.270751953125	-403.3016052246094	-195.2486877441406	1216.528564453125	-393.2055358886719	-46.57205200195317	931.049560546875	343.1749572753906	-51.75035858154298	943.828125	117.7717361450195	-235.2335510253907	946.1926879882812	186.061050415039	-226.7177886962891	955.7818603515625	303.1126708984374	-180.6806793212891	434.9928894042969	273.27392578125	-153.4230194091797	474.2364807128906	213.6961822509765	-162.2284851074219	470.1648864746094	390.2386169433593	-169.3711700439453	458.6412963867188	85.61029815673824	-189.2651824951172	120.4794235229492	379.4209899902344	-175.6288757324219	123.6985473632813	300.8245544433594	-178.6903228759766	123.5127563476563	190.2784423828125	-193.9832916259766	112.9036178588867	115.1804275512695	-252.0391387939453	63.67112731933594	163.2127532958984	-248.995346069336	74.84902954101564	345.4485778808593	-1.830810785293623	61.90652084350588	354.7745666503906	0.4832423031329947	57.23963165283204	131.7458190917969	
30	0.2416666666666667	0.8245230913162073	1553.736694335938	129.3417510986327	28.92546081542966	1542.421264648438	251.3297729492187	-149.5560760498047	1570.682006835938	163.4120330810546	-115.8170318603516	1558.235229492188	292.6776428222655	-126.0323104858399	1410.063598632812	344.9684448242186	-152.0301666259766	1399.2373046875	95.68856048583974	-67.75738525390628	1365.342407226562	193.909942626953	-23.51379203796389	1266.567016601562	204.5861358642577	-233.6697387695313	1211.924194335938	239.3364410400389	-115.9428863525391	1239.7109375	589.9349975585936	-143.6002502441406	1237.990966796875	-161.227020263672	-189.2565765380859	1276.081787109375	-179.5591583251954	-168.4680480957032	1274.621704101562	603.7468261718749	-184.7603302001954	1284.065795898438	825.4749755859374	-177.2807464599611	1222.670288085938	821.1591186523436	-230.8429107666017	1217.243041992188	897.3023071289061	-229.356948852539	1230.485229492188	-475.9225463867188	-185.9812622070312	1282.406005859375	-403.2956848144532	-195.0370941162109	1216.671875	-393.2323303222657	-46.6314964294434	931.0515747070312	343.1430664062499	-51.82168579101564	943.8289184570312	117.7361907958984	-235.2915649414063	946.20361328125	186.028091430664	-226.764144897461	955.7894287109375	303.0955810546874	-180.6839599609375	434.9841613769531	273.2708435058594	-153.3951416015625	474.2333374023438	213.6957244873046	-162.2553710937501	470.1759033203125	390.2370605468749	-169.3592224121094	458.6368713378906	85.59750366210933	-189.2619171142579	120.4791564941407	379.4036560058594	-175.6409759521485	123.6954116821289	300.8278503417969	-178.6798858642578	123.5097579956055	190.2858428955078	-193.9830474853516	112.9018020629883	115.1844787597656	-252.035140991211	63.67789459228516	163.2182922363281	-248.9910888671875	74.8513641357422	345.4512329101562	-1.83697080612187	61.90503692626955	354.7840881347656	0.483714312314971	57.24763870239259	131.7459259033203	
31	0.25	0.5398385524749597	1554.208251953125	129.4315032958984	28.73865318298337	1542.871459960938	251.4049377441405	-149.8805236816407	1570.60205078125	163.5360107421874	-116.0830535888672	1558.125366210938	292.7819519042968	-125.8529663085938	1410.050048828125	344.9967651367186	-151.8570556640625	1399.269897460938	95.71994781494131	-67.55471801757815	1365.33203125	193.9645996093749	-23.39113044738772	1266.516723632812	204.6046447753905	-233.604232788086	1211.992431640625	239.3428344726561	-115.8888244628907	1239.620971679688	589.9261474609374	-143.3917694091797	1238.070068359375	-161.2273559570314	-189.0821838378906	1276.206176757812	-179.5473175048829	-168.3713989257813	1274.549072265625	603.7455444335936	-184.6591949462892	1283.939331054688	825.4746704101561	-177.249237060547	1222.541259765625	821.1422119140624	-230.7759246826173	1217.140502929688	897.2709960937499	-229.0848541259765	1230.6689453125	-475.9528198242188	-185.7441711425781	1282.559936523438	-403.2815856933594	-194.8415222167968	1216.819213867188	-393.2334289550782	-46.68984985351567	931.05224609375	343.1252441406249	-51.8826026916504	943.8165893554688	117.7067260742187	-235.3410949707032	946.2105102539062	185.9808807373046	-226.8083038330078	955.8007202148438	303.0575866699218	-180.6796875	434.9862976074219	273.260986328125	-153.3926086425782	474.2423400878906	213.6957550048828	-162.2639923095704	470.1655578613281	390.2142028808593	-169.3733062744141	458.6451721191406	85.59345245361324	-189.2772521972657	120.4930877685547	379.4257507324219	-175.6257781982422	123.6909637451172	300.8237609863281	-178.6902923583985	123.5196304321289	190.3009490966797	-193.9827880859375	112.9094924926758	115.1905136108398	-252.0335540771485	63.67779159545899	163.2250518798828	-248.9976043701172	74.83583068847658	345.4512023925781	-1.843860626220747	61.91498184204104	354.7763671875	0.4935026764869528	57.25339889526368	131.7416839599609	
32	0.2583333333333333	0.2556442916393121	1554.66259765625	129.5216827392577	28.54410552978512	1543.310180664062	251.4528045654296	-150.1535186767578	1570.527465820312	163.6110534667968	-116.3409729003907	1558.003051757812	292.9019165039061	-125.6756896972657	1410.034912109375	345.0169067382811	-151.6739959716797	1399.288452148438	95.74239349365224	-67.33164215087893	1365.35595703125	193.9940795898437	-23.27276992797854	1266.47802734375	204.6291503906249	-233.5295104980469	1212.038208007812	239.3383331298827	-115.8029403686524	1239.526000976562	589.9185180664061	-143.2046508789062	1238.157104492188	-161.2095642089845	-188.8963623046875	1276.3037109375	-179.5435943603517	-168.2597808837891	1274.478881835938	603.7580566406249	-184.5428314208986	1283.825073242188	825.4868164062499	-177.1848297119142	1222.414306640625	821.1317749023436	-230.6629943847657	1217.029296875	897.2339477539061	-228.7516174316406	1230.835693359375	-475.9993591308594	-185.4945526123046	1282.718017578125	-403.2731323242188	-194.6439514160156	1216.962158203125	-393.2295532226563	-46.74206924438481	931.0315551757812	343.0923156738281	-51.9523277282715	943.8049926757812	117.6783218383788	-235.3927459716797	946.244140625	185.9685058593749	-226.849853515625	955.8199462890625	303.0388488769531	-180.658432006836	434.9655151367188	273.2286987304688	-151.2876586914063	473.6183166503906	213.3909759521484	-162.2628631591797	470.1728210449219	390.2048339843749	-169.4080505371094	458.6396484375	85.57994079589839	-189.274398803711	120.4753723144532	379.4241027832031	-175.4641876220703	123.6046371459961	300.9496459960938	-178.6840362548828	123.525276184082	190.2974395751953	-193.9785919189453	112.9001388549805	115.191535949707	-252.0254669189453	63.68197250366212	163.2144927978515	-249.0005035400391	74.84616851806642	345.4521179199218	-1.840255141258283	61.91917800903322	354.7768249511719	0.4964610040187674	57.25400924682618	131.7408599853516	
